<svg xmlns="http://www.w3.org/2000/svg" xmlns:xlink="http://www.w3.org/1999/xlink" xmlns:inkscape="http://www.inkscape.org/namespaces/inkscape" version="1.1" width="215" height="175" viewBox="0 0 215 175">
<defs>
<clipPath id="clip_1">
<path transform="matrix(1.00002,0,0,-1.00002,17.467057,163.19994)" d="M0 0H194.26912V161.4003H0Z"/>
</clipPath>
<path id="font_2_1" d="M.6589966 .23046875C.6759949 .23046875 .69400027 .23046875 .69400027 .25045777 .69400027 .27046205 .6759949 .27046205 .6589966 .27046205H.117996219C.100997928 .27046205 .08299255 .27046205 .08299255 .25045777 .08299255 .23046875 .100997928 .23046875 .117996219 .23046875H.6589966Z"/>
<path id="font_3_5" d="M.2939911 .16503906V.07800293C.2939911 .041992189 .2919922 .0309906 .21798706 .0309906H.19699097V0C.23799134 .0029907227 .2899933 .0029907227 .33198548 .0029907227 .37399293 .0029907227 .4269867 .0029907227 .46798707 0V.0309906H.44699098C.37298585 .0309906 .37098695 .041992189 .37098695 .07800293V.16503906H.47099305V.19602967H.37098695V.65075686C.37098695 .67074587 .37098695 .6767578 .35499574 .6767578 .34599305 .6767578 .34298707 .6767578 .33499146 .66474917L.027999878 .19602967V.16503906H.2939911M.2999878 .19602967H.055999757L.2999878 .5688019V.19602967Z"/>
<path id="font_3_3" d="M.1269989 .07699585 .23298645 .18003845C.3889923 .31811524 .44898988 .3721466 .44898988 .47216798 .44898988 .5860901 .35899354 .6660156 .23699951 .6660156 .12399292 .6660156 .049987794 .57411196 .049987794 .48516847 .049987794 .4291687 .099990848 .4291687 .102996829 .4291687 .11999512 .4291687 .15499878 .44117738 .15499878 .48217774 .15499878 .5081787 .13699341 .5341797 .101989749 .5341797 .09399414 .5341797 .09199524 .5341797 .08898926 .5331726 .11199951 .59806826 .1659851 .63500979 .22399903 .63500979 .31498719 .63500979 .35798646 .5541382 .35798646 .47216798 .35798646 .39215089 .30799867 .31311036 .25299073 .25108338L.06098938 .036987306C.049987794 .025985718 .049987794 .023986817 .049987794 0H.42099L.44898988 .17404175H.42399598C.4189911 .14402771 .4119873 .1000061 .4019928 .084991458 .394989 .07699585 .32899476 .07699585 .30699159 .07699585H.1269989Z"/>
<path id="font_3_1" d="M.45999146 .31976319C.45999146 .39982606 .45498658 .47988893 .41999818 .5539398 .37399293 .65000918 .2919922 .6660156 .25 .6660156 .18998719 .6660156 .116989139 .64001467 .07598877 .54693606 .04399109 .47789 .038986207 .39982606 .038986207 .31976319 .038986207 .24472046 .042999269 .15464783 .083999637 .07859802 .1269989-.0024719239 .19999695-.022460938 .24899292-.022460938 .30299378-.022460938 .3789978-.0014648438 .4229889 .09359741 .45498658 .16265869 .45999146 .2407074 .45999146 .31976319M.24899292-.00047302247C.20999146-.00047302247 .15098572 .024551392 .1329956 .12062073 .12199402 .18066406 .12199402 .2727356 .12199402 .3317871 .12199402 .39582826 .12199402 .46188355 .12998963 .5159149 .14898682 .63500979 .22399903 .64401248 .24899292 .64401248 .28199769 .64401248 .34799195 .6259918 .36698915 .52693179 .3769989 .47088624 .3769989 .39482118 .3769989 .3317871 .3769989 .25672914 .3769989 .18867493 .3659973 .12461853 .35099793 .029556275 .2939911-.00047302247 .24899292-.00047302247Z"/>
<path id="font_4_1" d="M.19198609 .052993776C.19198609 .08198547 .16799927 .10598755 .13899231 .10598755 .10998535 .10598755 .085998538 .08198547 .085998538 .052993776 .085998538 .023986817 .10998535 0 .13899231 0 .16799927 0 .19198609 .023986817 .19198609 .052993776Z"/>
<path id="font_3_2" d="M.2939911 .64004519C.2939911 .66400149 .2939911 .6660156 .2709961 .6660156 .20899964 .60227969 .12098694 .60227969 .08898926 .60227969V.57128909C.10899353 .57128909 .16799927 .57128909 .21998596 .5972748V.07902527C.21998596 .042999269 .21699524 .0309906 .1269989 .0309906H.09498596V0C.12998963 .0029907227 .21699524 .0029907227 .25698854 .0029907227 .29699708 .0029907227 .38398744 .0029907227 .4189911 0V.0309906H.3869934C.29699708 .0309906 .2939911 .041992189 .2939911 .07902527V.64004519Z"/>
<path id="font_3_4" d="M.2899933 .35191346C.37199403 .37893678 .42999269 .4490509 .42999269 .52809146 .42999269 .6100464 .34199525 .6660156 .24598694 .6660156 .14498902 .6660156 .068984989 .60606387 .068984989 .53009036 .068984989 .49710084 .09098816 .47808839 .11999512 .47808839 .15098572 .47808839 .17098999 .50009158 .17098999 .5290985 .17098999 .57910159 .12399292 .57910159 .10899353 .57910159 .13999939 .62802127 .20599365 .64100649 .24198914 .64100649 .2829895 .64100649 .33799745 .6190338 .33799745 .5290985 .33799745 .51708987 .33599855 .45906068 .30999757 .4149933 .27999879 .36691285 .24598694 .36390687 .22099304 .36291505 .21299744 .36190797 .18899536 .35990907 .18199158 .35990907 .17399597 .35890199 .16699219 .35791017 .16699219 .3479004 .16699219 .33691407 .17399597 .33691407 .19099427 .33691407H.23498535C.31698609 .33691407 .35398866 .2686615 .35398866 .17037964 .35398866 .034469606 .2849884 .0055389406 .24099732 .0055389406 .19799805 .0055389406 .12298584 .022491456 .08799744 .08137512 .12298584 .07637024 .1539917 .09837341 .1539917 .1363678 .1539917 .17237854 .1269989 .19238281 .09799194 .19238281 .07398987 .19238281 .041992189 .17837525 .041992189 .1343689 .041992189 .043441774 .1349945-.022460938 .24398804-.022460938 .3659973-.022460938 .45700074 .06838989 .45700074 .17037964 .45700074 .252594 .3939972 .33088685 .2899933 .35191346Z"/>
<path id="font_3_6" d="M.44898988 .20022583C.44898988 .3193512 .36698915 .41944886 .25898744 .41944886 .21099854 .41944886 .16799927 .40345765 .13198853 .36842347V.5637665C.1519928 .5577698 .18499756 .55078127 .21699524 .55078127 .33999635 .55078127 .4099884 .6417694 .4099884 .6547699 .4099884 .6607666 .40699769 .6657715 .3999939 .6657715 .39898683 .6657715 .39698792 .6657715 .3919983 .66278079 .37199403 .6537781 .32299806 .6337738 .2559967 .6337738 .21598816 .6337738 .16999817 .6407776 .12298584 .6617737 .114990238 .66477969 .11299133 .66477969 .11099243 .66477969 .100997928 .66477969 .100997928 .6567688 .100997928 .6407776V.34439088C.100997928 .32637025 .100997928 .31835938 .114990238 .31835938 .12199402 .31835938 .12399292 .32136537 .12799073 .32736207 .13899231 .3433838 .17599488 .39746095 .25698854 .39746095 .30899049 .39746095 .33399964 .35139466 .34199525 .33337403 .35798646 .29632569 .3600006 .25727845 .3600006 .20722962 .3600006 .17222595 .3600006 .11222839 .33599855 .07035828 .31199647 .031463624 .2749939 .0055389406 .22898865 .0055389406 .1559906 .0055389406 .09899902 .058380128 .08198547 .11723328 .084991458 .1162262 .08799744 .115234378 .09899902 .115234378 .13198853 .115234378 .14898682 .14022827 .14898682 .16423035 .14898682 .18823242 .13198853 .21322632 .09899902 .21322632 .084991458 .21322632 .049987794 .20622254 .049987794 .16023255 .049987794 .07434082 .11898804-.022460938 .23098755-.022460938 .34700013-.022460938 .44898988 .073349 .44898988 .20022583Z"/>
<clipPath id="clip_5">
<path transform="matrix(1.00002,0,0,-1.00002,17.467057,163.19994)" d="M0 0H194.26912V161.4003H0Z"/>
</clipPath>
</defs>
<path transform="matrix(1.00002,0,0,-1.00002,17.467057,163.19994)" stroke-width=".19925" stroke-linecap="butt" stroke-miterlimit="10" stroke-linejoin="miter" fill="none" stroke="#7f807f" d="M0 0V4.252M48.56728 0V4.252M97.13455 0V4.252M145.70183 0V4.252M194.26912 0V4.252M0 161.4003V157.14827M48.56728 161.4003V157.14827M97.13455 161.4003V157.14827M145.70183 161.4003V157.14827M194.26912 161.4003V157.14827"/>
<path transform="matrix(1.00002,0,0,-1.00002,17.467057,163.19994)" stroke-width=".19925" stroke-linecap="butt" stroke-miterlimit="10" stroke-linejoin="miter" fill="none" stroke="#7f807f" d="M0 13.45068H4.25188M0 40.89026H4.25188M0 68.32983H4.25188M0 95.7694H4.25188M0 123.20897H4.25188M0 150.64855H4.25188M194.26912 13.45068H190.01721M194.26912 40.89026H190.01721M194.26912 68.32983H190.01721M194.26912 95.7694H190.01721M194.26912 123.20897H190.01721M194.26912 150.64855H190.01721"/>
<path transform="matrix(1.00002,0,0,-1.00002,17.467057,163.19994)" stroke-width=".3985" stroke-linecap="butt" stroke-miterlimit="10" stroke-linejoin="miter" fill="none" stroke="#000000" d="M0 0V161.4003H194.26912V0H0Z"/>
<g clip-path="url(#clip_1)">
<path transform="matrix(1.00002,0,0,-1.00002,17.467057,163.19994)" d="M97.13454 147.94217 97.62257 147.94959 98.59879 142.63893 99.57501 137.56233 100.55124 132.6619 101.52747 127.96973 102.5037 123.45427 103.47992 119.11635 104.45615 114.95898 105.43237 110.9517 106.4086 107.11017 107.38483 103.41817 108.36107 99.87682 109.3373 96.47322 110.3135 93.1953 111.28973 90.0521 112.26596 87.03264 113.24219 84.13638 114.21841 81.35265 115.19464 78.67453 116.17087 76.11003 117.1471 73.63937 118.12332 71.26448 119.09955 68.98672 120.07578 66.80528 121.05199 64.6927 122.02821 62.67453 123.00444 60.73978 123.98067 58.87277 124.9569 57.0892 125.93312 55.36023 126.90935 53.7125 127.88557 52.12099 128.8618 50.59673 129.83803 49.14409 130.81426 47.7293 131.79047 46.38475 132.7667 45.08138 133.74292 43.83287 134.71915 42.63788 135.69538 41.48679 136.6716 40.37411 137.64783 39.31769 138.62406 38.30243 139.60028 37.32722 140.5765 36.38055 141.55274 35.47615 142.52896 34.61208 143.50519 33.7738 144.48142 32.97668 145.45764 32.20837 145.70182 32.02301 145.7016 13.45068H137.60469 127.48668 117.36865 107.25063 97.13261 97.1343Z" fill="#0000ff" fill-opacity=".25"/>
</g>
<use data-text="&#x2212;" xlink:href="#font_2_1" transform="matrix(9.962799,0,0,-9.962799,11.101929,173.14014)"/>
<use data-text="4" xlink:href="#font_3_5" transform="matrix(9.962799,0,0,-9.962799,18.851082,173.14014)"/>
<use data-text="&#x2212;" xlink:href="#font_2_1" transform="matrix(9.962799,0,0,-9.962799,59.669904,173.14014)"/>
<use data-text="2" xlink:href="#font_3_3" transform="matrix(9.962799,0,0,-9.962799,67.41905,173.14014)"/>
<use data-text="0" xlink:href="#font_3_1" transform="matrix(9.962799,0,0,-9.962799,112.112949,173.14014)"/>
<use data-text="2" xlink:href="#font_3_3" transform="matrix(9.962799,0,0,-9.962799,160.68093,173.14014)"/>
<use data-text="4" xlink:href="#font_3_5" transform="matrix(9.962799,0,0,-9.962799,209.2489,173.14014)"/>
<use data-text="0" xlink:href="#font_3_1" transform="matrix(9.962799,0,0,-9.962799,8.965881,152.95973)"/>
<use data-text="0" xlink:href="#font_3_1" transform="matrix(9.962799,0,0,-9.962799,1.2167282,125.51918)"/>
<use data-text="." xlink:href="#font_4_1" transform="matrix(9.962799,0,0,-9.962799,6.19783,125.51918)"/>
<use data-text="1" xlink:href="#font_3_2" transform="matrix(9.962799,0,0,-9.962799,8.965881,125.51918)"/>
<use data-text="0" xlink:href="#font_3_1" transform="matrix(9.962799,0,0,-9.962799,1.2167282,98.07863)"/>
<use data-text="." xlink:href="#font_4_1" transform="matrix(9.962799,0,0,-9.962799,6.19783,98.07863)"/>
<use data-text="2" xlink:href="#font_3_3" transform="matrix(9.962799,0,0,-9.962799,8.965881,98.07863)"/>
<use data-text="0" xlink:href="#font_3_1" transform="matrix(9.962799,0,0,-9.962799,1.2167282,70.639087)"/>
<use data-text="." xlink:href="#font_4_1" transform="matrix(9.962799,0,0,-9.962799,6.19783,70.639087)"/>
<use data-text="3" xlink:href="#font_3_4" transform="matrix(9.962799,0,0,-9.962799,8.965881,70.639087)"/>
<use data-text="0" xlink:href="#font_3_1" transform="matrix(9.962799,0,0,-9.962799,1.2167282,43.198534)"/>
<use data-text="." xlink:href="#font_4_1" transform="matrix(9.962799,0,0,-9.962799,6.19783,43.198534)"/>
<use data-text="4" xlink:href="#font_3_5" transform="matrix(9.962799,0,0,-9.962799,8.965881,43.198534)"/>
<use data-text="0" xlink:href="#font_3_1" transform="matrix(9.962799,0,0,-9.962799,1.2167282,15.758972)"/>
<use data-text="." xlink:href="#font_4_1" transform="matrix(9.962799,0,0,-9.962799,6.19783,15.758972)"/>
<use data-text="5" xlink:href="#font_3_6" transform="matrix(9.962799,0,0,-9.962799,8.965881,15.758972)"/>
<g clip-path="url(#clip_5)">
<path transform="matrix(1.00002,0,0,-1.00002,17.467057,163.19994)" stroke-width=".79701" stroke-linecap="butt" stroke-miterlimit="10" stroke-linejoin="miter" fill="none" stroke="#000000" d="M0 15.96342 .97621 16.06653 1.95244 16.17378 2.92867 16.28554 3.90489 16.40178 4.88112 16.52284 5.85735 16.64893 6.83357 16.78006 7.8098 16.91667 8.78603 17.05879 9.76225 17.20682 10.73848 17.36092 11.71469 17.52126 12.69092 17.68828 13.66714 17.86214 14.64337 18.04306 15.6196 18.23148 16.59583 18.42758 17.57205 18.63168 18.54828 18.84431 19.5245 19.0655 20.50073 19.29584 21.47696 19.5355 22.45317 19.78525 23.4294 20.04504 24.40562 20.3155 25.38185 20.59718 26.35808 20.89026 27.3343 21.19543 28.31053 21.51326 29.28676 21.84387 30.26299 22.18817 31.23921 22.5467 32.21544 22.91971 33.19165 23.30812 34.16788 23.71239 35.1441 24.13342 36.12033 24.57173 37.09656 25.02777 38.07278 25.50278 39.04901 25.99706 40.02524 26.51172 41.00146 27.04767 41.97769 27.59851 42.95392 28.18848 43.93013 28.79214 44.90636 29.42297 45.88258 30.06783 46.85881 30.75545 47.83504 31.46722 48.81126 32.20837 49.78749 32.97668 50.76372 33.7738 51.73994 34.61208 52.71617 35.47615 53.6924 36.38055 54.66862 37.31323 55.64484 38.30243 56.62106 39.31769 57.59729 40.37411 58.57352 41.48679 59.54974 42.63788 60.52597 43.83287 61.5022 45.08138 62.47842 46.38475 63.45465 47.7293 64.43088 49.13036 65.4071 50.59673 66.38332 52.12099 67.35954 53.7125 68.33577 55.36023 69.312 57.0892 70.28822 58.87277 71.26445 60.73978 72.24068 62.67453 73.2169 64.6927 74.19313 66.7932 75.16937 68.98672 76.1456 71.26448 77.12181 73.63937 78.09804 76.11003 79.07426 78.67453 80.05049 81.35265 81.02672 84.13638 82.00294 87.03264 82.97917 90.0521 83.9554 93.1953 84.93163 96.47322 85.90785 99.87682 86.88408 103.41817 87.86029 107.11017 88.83652 110.9517 89.81274 114.95898 90.78897 119.11635 91.7652 123.45427 92.74142 127.96973 93.71767 132.6619 94.6939 137.54724 95.67012 142.63893 96.64635 147.93477 97.62257 147.94959 98.59879 142.63893 99.57501 137.56233 100.55124 132.6619 101.52747 127.96973 102.5037 123.45427 103.47992 119.11635 104.45615 114.95898 105.43237 110.9517 106.4086 107.11017 107.38483 103.41817 108.36107 99.87682 109.3373 96.47322 110.3135 93.1953 111.28973 90.0521 112.26596 87.03264 113.24219 84.13638 114.21841 81.35265 115.19464 78.67453 116.17087 76.11003 117.1471 73.63937 118.12332 71.26448 119.09955 68.98672 120.07578 66.80528 121.05199 64.6927 122.02821 62.67453 123.00444 60.73978 123.98067 58.87277 124.9569 57.0892 125.93312 55.36023 126.90935 53.7125 127.88557 52.12099 128.8618 50.59673 129.83803 49.14409 130.81426 47.7293 131.79047 46.38475 132.7667 45.08138 133.74292 43.83287 134.71915 42.63788 135.69538 41.48679 136.6716 40.37411 137.64783 39.31769 138.62406 38.30243 139.60028 37.32722 140.5765 36.38055 141.55274 35.47615 142.52896 34.61208 143.50519 33.7738 144.48142 32.97668 145.45764 32.20837 146.43387 31.46722 147.4101 30.75545 148.38632 30.06783 149.36255 29.42297 150.33878 28.79214 151.315 28.18848 152.29123 27.59851 153.26744 27.04767 154.24367 26.51193 155.2199 25.9972 156.19612 25.50278 157.17235 25.02798 158.14858 24.57173 159.1248 24.13342 160.10103 23.71259 161.07726 23.30812 162.05348 22.91983 163.02971 22.5467 164.00594 22.18817 164.98215 21.84395 165.95838 21.51326 166.9346 21.1956 167.91083 20.89037 168.88706 20.59718 169.86328 20.31564 170.83951 20.04504 171.81574 19.78528 172.79196 19.53566 173.76819 19.29584 174.74442 19.06552 175.72063 18.84431 176.69686 18.63168 177.67308 18.42758 178.6493 18.23148 179.62554 18.04314 180.60176 17.86214 181.57799 17.68828 182.55422 17.52133 183.53044 17.36092 184.50667 17.20688 185.4829 17.05882 186.4591 16.91667 187.43534 16.78009 188.41156 16.64893 189.38779 16.52292 190.36402 16.40181 191.34024 16.28554 192.31647 16.17383 193.2927 16.06653 194.26892 15.96349"/>
<path transform="matrix(1.00002,0,0,-1.00002,17.467057,163.19994)" stroke-width=".3985" stroke-linecap="butt" stroke-miterlimit="10" stroke-linejoin="miter" fill="none" stroke="#000000" d="M-24.28363 13.45068H-14.16562-4.04759 6.07042 16.18843 26.30646 36.42448 46.5425 56.66052 66.77855 76.89656 87.01459 97.13261 107.25063 117.36865 127.48668 137.60469 147.7227 157.84073 167.95876 178.07677 188.1948 198.31282 208.43083 218.54886"/>
</g>
</svg>
