<svg xmlns="http://www.w3.org/2000/svg" xmlns:xlink="http://www.w3.org/1999/xlink" xmlns:inkscape="http://www.inkscape.org/namespaces/inkscape" version="1.1" width="198" height="175" viewBox="0 0 198 175">
<defs>
<path id="font_1_1" d="M.23098755 .35134889C.23599243 .37236024 .24598694 .41036988 .24598694 .41537477 .24598694 .43237306 .23399353 .4423828 .21699524 .4423828 .21398926 .4423828 .18598938 .44137574 .1769867 .40637208L.032989503-.17282105C.02999878-.18482971 .02999878-.18682862 .02999878-.18882752 .02999878-.2038269 .040985109-.21582031 .057998659-.21582031 .07899475-.21582031 .09098816-.1978302 .09298706-.19482422 .09700012-.18582154 .10998535-.13380432 .147995 .020248414 .17999268-.0067443849 .22499085-.0107421879 .24499512-.0107421879 .31498719-.0107421879 .35398866 .03425598 .37799073 .06227112 .3869934 .01725769 .42399598-.0107421879 .46798707-.0107421879 .5029907-.0107421879 .526001 .012252808 .5419922 .044265748 .5589905 .08027649 .57199099 .14129639 .57199099 .14329529 .57199099 .1532898 .5629883 .1532898 .55999758 .1532898 .5499878 .1532898 .548996 .14929199 .54599 .13528443 .5289917 .07026672 .5109863 .011245728 .46998597 .011245728 .44299317 .011245728 .43998719 .037261964 .43998719 .057266237 .43998719 .07926941 .45199586 .12628174 .45999146 .16130066L.48799134 .2693329C.4909973 .28433229 .5009918 .32234193 .5049896 .3373413 .5099945 .36035157 .519989 .3983612 .519989 .40437318 .519989 .42237855 .5059967 .43138124 .4909973 .43138124 .48599244 .43138124 .45999146 .43037416 .45199586 .3963623L.40499879 .20930481C.3929901 .15930176 .38198854 .11727905 .3789978 .107284549 .37799073 .10227966 .32998658 .011245728 .24899292 .011245728 .19898987 .011245728 .1749878 .044265748 .1749878 .09828186 .1749878 .12728882 .18199158 .1552887 .18899536 .18330384L.23098755 .35134889Z"/>
<clipPath id="clip_2">
<path transform="matrix(1.00003,0,0,-1.00008,-53.410169,149.76569)" d="M55.50546-13.45137H249.77458V147.95696H55.50546Z"/>
</clipPath>
<path id="font_1_2" d="M.5179901 .37265016C.5309906 .37265016 .5669861 .37265016 .5669861 .406662 .5669861 .43066407 .54599 .43066407 .5279999 .43066407H.2999878C.14898682 .43066407 .037994386 .26583863 .037994386 .14703369 .037994386 .059173585 .09700012-.0107421879 .18798828-.0107421879 .30599977-.0107421879 .43899537 .11009216 .43899537 .26383973 .43899537 .2808075 .43899537 .32873536 .4079895 .37265016H.5179901M.18899536 .011245728C.13999939 .011245728 .099990848 .047195436 .099990848 .11907959 .099990848 .14901734 .11199951 .230896 .14698792 .28979493 .18899536 .3586731 .24899292 .37265016 .2829895 .37265016 .36698915 .37265016 .375 .3067627 .375 .27581788 .375 .2288971 .35499574 .14703369 .32099916 .09611511 .28199769 .037200929 .22799683 .011245728 .18899536 .011245728Z"/>
</defs>
<path transform="matrix(1.00003,0,0,-1.00008,-53.410169,149.76569)" stroke-width=".19925" stroke-linecap="butt" stroke-miterlimit="10" stroke-linejoin="miter" fill="none" stroke="#7f807f" d=""/>
<path transform="matrix(1.00003,0,0,-1.00008,-53.410169,149.76569)" stroke-width=".19925" stroke-linecap="butt" stroke-miterlimit="10" stroke-linejoin="miter" fill="none" stroke="#7f807f" d=""/>
<path transform="matrix(1.00003,0,0,-1.00008,-53.410169,149.76569)" stroke-width=".3985" stroke-linecap="butt" stroke-miterlimit="10" stroke-linejoin="miter" fill="none" stroke="#000000" d="M55.50546-13.45137V147.95696H249.77458V-13.45137H55.50546Z"/>
<path transform="matrix(1.00003,0,0,-1.00008,-53.410169,149.76569)" stroke-width=".19925" stroke-linecap="butt" stroke-miterlimit="10" stroke-linejoin="miter" fill="none" stroke="#7f807f" d="M166.51639-13.45137V-9.19946M166.51639 147.95696V143.70505"/>
<use data-text="&#x00b5;" xlink:href="#font_1_1" transform="matrix(9.962899,0,0,-9.963397,110.10974,171.02838)"/>
<g clip-path="url(#clip_2)">
<path transform="matrix(1.00003,0,0,-1.00008,-53.410169,149.76569)" stroke-width=".79701" stroke-linecap="butt" stroke-miterlimit="10" stroke-linejoin="miter" fill="none" stroke="#000000" d="M55.50546 .04 56.48167 .046 57.4579 .05287 58.43413 .06067 59.41035 .06952 60.38658 .07959 61.36282 .09099 62.33905 .1039 63.31528 .11848 64.2915 .13495 65.26773 .15355 66.24397 .17447 67.22018 .19798 68.19641 .22443 69.17264 .25404 70.14886 .28722 71.12509 .32436 72.10133 .36583 73.07756 .41206 74.05379 .46353 75.03001 .5209 76.00624 .58458 76.98248 .65523 77.9587 .73355 78.93492 .82011 79.91115 .91582 80.88737 1.02145 81.8636 1.13786 82.83984 1.26588 83.81607 1.40671 84.7923 1.56117 85.76852 1.73051 86.74475 1.91582 87.721 2.11836 88.69722 2.33943 89.67343 2.58035 90.64966 2.8425 91.62589 3.12752 92.60213 3.43675 93.57835 3.772 94.55458 4.13478 95.5308 4.52686 96.50703 4.9499 97.48326 5.40591 98.4595 5.89664 99.43573 6.42381 100.41194 6.98967 101.38817 7.59578 102.3644 8.24434 103.34064 8.9372 104.31686 9.67622 105.29309 10.46341 106.26932 11.30083 107.24554 12.18918 108.22177 13.13132 109.19801 14.13322 110.17424 15.18207 111.15045 16.30327 112.12668 17.47316 113.10292 18.7145 114.07915 20.01321 115.05537 21.37233 116.03162 22.79152 117.00784 24.28333 117.98407 25.84657 118.9603 27.46841 119.93654 29.16168 120.91277 30.91595 121.88898 32.72849 122.86522 34.61334 123.84145 36.56906 124.81767 38.5726 125.7939 40.6356 126.77014 42.77008 127.74637 44.95325 128.7226 47.18483 129.69882 49.47414 130.67507 51.80048 131.65129 54.17346 132.62752 56.59546 133.60375 59.04106 134.57997 61.50969 135.5562 64.01358 136.53244 66.52974 137.50867 69.07219 138.4849 71.61195 139.46112 74.15202 140.43737 76.69208 141.41359 79.22078 142.38983 81.73843 143.36605 84.22021 144.34227 86.67657 145.3185 89.09857 146.29474 91.4596 147.27097 93.78476 148.2472 96.03966 149.22342 98.22075 150.19966 100.33368 151.17589 102.37277 152.15213 104.31654 153.12836 106.16466 154.10457 107.9189 155.0808 109.56435 156.05704 111.09322 157.03327 112.51212 158.00949 113.80008 158.98572 114.95592 159.96196 115.99431 160.93819 116.88742 161.91442 117.64006 162.89066 118.26028 163.86688 118.72627 164.8431 119.04819 165.81934 119.22574 166.79557 119.26161 167.77179 119.14233 168.74802 118.8799 169.72426 118.47461 170.70049 117.91415 171.67671 117.22249 172.65294 116.38797 173.62917 115.42192 174.6054 114.3118 175.58162 113.07256 176.55785 111.71075 177.53408 110.2336 178.5103 108.63448 179.48653 106.92923 180.46277 105.12717 181.439 103.21957 182.41522 101.21632 183.39145 99.14017 184.36768 96.9827 185.3439 94.75171 186.32013 92.46123 187.29636 90.11185 188.27259 87.71376 189.24881 85.2801 190.22504 82.80132 191.20128 80.30728 192.1775 77.77829 193.15373 75.24898 194.12996 72.70892 195.10619 70.1563 196.08243 67.61624 197.05866 65.08694 198.03487 62.58394 199.0111 60.09052 199.98732 57.63174 200.96355 55.19899 201.93979 52.81406 202.91602 50.46378 203.89225 48.16106 204.86847 45.89629 205.8447 43.68948 206.82094 41.54187 207.79717 39.45497 208.77338 37.41615 209.7496 35.44699 210.72583 33.52745 211.70206 31.67874 212.6783 29.90117 213.65453 28.1825 214.63076 26.53824 215.60698 24.95108 216.5832 23.42459 217.55945 21.96893 218.53568 20.58682 219.51189 19.26178 220.48812 17.99684 221.46434 16.79227 222.44058 15.65942 223.41681 14.57442 224.39304 13.54918 225.36927 12.58163 226.34549 11.67494 227.32172 10.8158 228.29796 10.00717 229.27419 9.24779 230.2504 8.53546 231.22663 7.86812 232.20285 7.244 233.1791 6.66124 234.15532 6.11772 235.13155 5.61159 236.10778 5.14099 237.084 4.70406 238.06023 4.29897 239.03647 3.92384 240.0127 3.57703 240.9889 3.25685 241.96514 2.96167 242.94136 2.68987 243.9176 2.44 244.89383 2.21066 245.87006 2.00035 246.84629 1.80783 247.82251 1.63177 248.79875 1.47108 249.77498 1.3246"/>
<path transform="matrix(1.00003,0,0,-1.00008,-53.410169,149.76569)" stroke-width=".3985" stroke-linecap="butt" stroke-miterlimit="10" stroke-linejoin="miter" fill="none" stroke="#000000" d="M0 0H11.56343 23.12689 34.69034 46.2538 57.81725 69.3807 80.94415 92.50761 104.07106 115.63452 127.19797 138.76143 150.32488 161.88834 173.45178 185.01525 196.57869 208.14215 219.7056 231.26906 242.8325 254.39597 265.9594 277.52287"/>
<path transform="matrix(1.00003,0,0,-1.00008,-53.410169,149.76569)" stroke-width=".79701" stroke-linecap="butt" stroke-dasharray="2.98883,2.98883" stroke-miterlimit="10" stroke-linejoin="miter" fill="none" stroke="#000000" d="M166.51639 0V134.50557"/>
<path transform="matrix(1.00003,0,0,-1.00008,-53.410169,149.76569)" stroke-width=".79701" stroke-linecap="butt" stroke-dasharray="2.98883,2.98883" stroke-miterlimit="10" stroke-linejoin="miter" fill="none" stroke="#000000" d="M138.76366 0V89.67038"/>
<path transform="matrix(1.00003,0,0,-1.00008,-53.410169,149.76569)" stroke-width=".79701" stroke-linecap="butt" stroke-dasharray="2.98883,2.98883" stroke-miterlimit="10" stroke-linejoin="miter" fill="none" stroke="#000000" d="M194.26912 0V89.67038"/>
<path transform="matrix(1.00003,0,0,-1.00008,-53.410169,149.76569)" stroke-width=".79701" stroke-linecap="butt" stroke-miterlimit="10" stroke-linejoin="miter" fill="none" stroke="#000000" d="M167.22374 59.78026H193.56175"/>
<path transform="matrix(-1.00003,-0,0,1.00008,113.81859,89.980648)" stroke-width=".6376" stroke-linecap="round" stroke-linejoin="round" fill="none" stroke="#000000" d="M-1.55415 2.0722C-1.42464 1.29512 0 .1295 .38852 0 0-.1295-1.42464-1.29512-1.55415-2.0722"/>
<path transform="matrix(1.00003,0,0,-1.00008,140.1574,89.980648)" stroke-width=".6376" stroke-linecap="round" stroke-linejoin="round" fill="none" stroke="#000000" d="M-1.55415 2.0722C-1.42464 1.29512 0 .1295 .38852 0 0-.1295-1.42464-1.29512-1.55415-2.0722"/>
<use data-text="&#x03c3;" xlink:href="#font_1_2" transform="matrix(9.962899,0,0,-9.963397,123.96315,86.26161)"/>
</g>
</svg>
