<svg xmlns="http://www.w3.org/2000/svg" xmlns:xlink="http://www.w3.org/1999/xlink" xmlns:inkscape="http://www.inkscape.org/namespaces/inkscape" version="1.1" width="199" height="59" viewBox="0 0 199 59">
<defs>
<path id="font_1_121" d="M.45999146 .31976319C.45999146 .39982606 .45498658 .47988893 .41999818 .5539398 .37399293 .65000918 .2919922 .6660156 .25 .6660156 .18998719 .6660156 .116989139 .64001467 .07598877 .54693606 .04399109 .47789 .038986207 .39982606 .038986207 .31976319 .038986207 .24472046 .042999269 .15464783 .083999637 .07859802 .1269989-.0024719239 .19999695-.022460938 .24899292-.022460938 .30299378-.022460938 .3789978-.0014648438 .4229889 .09359741 .45498658 .16265869 .45999146 .2407074 .45999146 .31976319M.3769989 .3317871C.3769989 .25672914 .3769989 .18867493 .3659973 .12461853 .35099793 .029556275 .2939911-.00047302247 .24899292-.00047302247 .20999146-.00047302247 .15098572 .024551392 .1329956 .12062073 .12199402 .18066406 .12199402 .2727356 .12199402 .3317871 .12199402 .39582826 .12199402 .46188355 .12998963 .5159149 .14898682 .63500979 .22399903 .64401248 .24899292 .64401248 .28199769 .64401248 .34799195 .6259918 .36698915 .52693179 .3769989 .47088624 .3769989 .39482118 .3769989 .3317871Z"/>
<path id="font_1_47" d="M.5269928 0V.0309906C.45700074 .0309906 .44898988 .038009645 .44898988 .0871582V.69433596L.30499269 .6826172V.6516113C.375 .6516113 .3829956 .64463809 .3829956 .59580996V.38035584C.35398866 .41636659 .31098939 .4423828 .25698854 .4423828 .13899231 .4423828 .033996583 .3443451 .033996583 .21531677 .033996583 .088272098 .13198853-.0107421879 .24598694-.0107421879 .30999757-.0107421879 .35499574 .023254395 .37998963 .055267335V-.0107421879L.5269928 0M.37998963 .117996219C.37998963 .099990848 .37998963 .09799194 .36898805 .08099365 .33898927 .033218385 .2939911 .011245728 .25099183 .011245728 .20599365 .011245728 .16999817 .037216188 .1459961 .075164798 .11999512 .1161499 .116989139 .17320252 .116989139 .21421814 .116989139 .25125123 .11898804 .31129457 .147995 .35632325 .16899109 .38734437 .20698548 .42037965 .26098634 .42037965 .29599 .42037965 .33799745 .405365 .36898805 .3603363 .37998963 .34332276 .37998963 .34132386 .37998963 .32330323V.117996219Z"/>
<path id="font_1_55" d="M.35699464 .63479617C.35699464 .6717987 .31999208 .7050781 .2669983 .7050781 .19699097 .7050781 .11199951 .65179446 .11199951 .5457611V.43066407H.032989503V.3996582H.11199951V.07595825C.11199951 .0309906 .100997928 .0309906 .033996583 .0309906V0L.147995 .0029907227C.18798828 .0029907227 .23498535 .0029907227 .2749939 0V.0309906H.2539978C.17999268 .0309906 .17799378 .04197693 .17799378 .07795715V.3996582H.2919922V.43066407H.1749878V.5467529C.1749878 .63479617 .22299195 .68307498 .2669983 .68307498 .269989 .68307498 .2849884 .68307498 .2999878 .675827 .28799439 .6717987 .269989 .6587982 .269989 .6338043 .269989 .61079409 .28599549 .5907898 .31298829 .5907898 .34199525 .5907898 .35699464 .61079409 .35699464 .63479617Z"/>
<path id="font_2_1" d="M.58299258 .4033661C.59399417 .41436769 .59399417 .41636659 .59399417 .41937257 .59399417 .42536927 .58999636 .43138124 .58200076 .43138124 .57598879 .43138124 .57199099 .42637635 .56599429 .41937257L.33699037 .16418457C.29699708 .29127503 .2889862 .31629945 .2659912 .369339 .25498963 .39234925 .23298645 .4423828 .14498902 .4423828 .08699036 .4423828 .06098938 .39035035 .06098938 .37634278 .06098938 .3753357 .06098938 .366333 .07299805 .366333 .08198547 .366333 .083999637 .3723297 .085998538 .3773346 .100997928 .41636659 .1329956 .42037965 .13899231 .42037965 .16899109 .42037965 .19898987 .34431459 .21598816 .3002777 .24798584 .22122193 .27999879 .10513306 .27999879 .102127078 .27999879 .101135257 .27999879 .09913635 .27198792 .09112549L.041992189-.16607666C.0309906-.17707825 .0309906-.17907715 .0309906-.18208313 .0309906-.18807984 .036987306-.1940918 .042999269-.1940918 .049987794-.1940918 .054992677-.18708802 .05899048-.18309021L.28799439 .07411194C.31999208-.029968262 .33198548-.069000247 .35598756-.12504578 .36898805-.15505982 .3909912-.20507813 .47999574-.20507813 .5379944-.20507813 .5649872-.15306092 .5649872-.14006043 .5649872-.13505554 .5629883-.12904358 .5529938-.12904358 .54299929-.12904358 .5419922-.13304138 .5389862-.14305115 .5299988-.16706848 .5049896-.18309021 .48599244-.18309021 .43499757-.18309021 .36698915 .05909729 .34498597 .13615418L.58299258 .4033661Z"/>
<path id="font_3_1" d="M.5049896 .18203736H.47099305C.46798707 .16001892 .45799256 .100997928 .44499208 .09098816 .43699647 .084991458 .3600006 .084991458 .34599305 .084991458H.1619873C.2669983 .17803955 .3019867 .20603943 .3619995 .25306703 .43598939 .312088 .5049896 .374115 .5049896 .46914674 .5049896 .5900879 .39898683 .6640625 .2709961 .6640625 .14698792 .6640625 .06298828 .57710269 .06298828 .4851532 .06298828 .43414308 .10598755 .42915345 .115997318 .42915345 .13999939 .42915345 .16899109 .44615174 .16899109 .48214723 .16899109 .5001526 .1619873 .53515627 .10998535 .53515627 .14099121 .6060791 .20899964 .62805178 .2559967 .62805178 .35598756 .62805178 .4079895 .5501404 .4079895 .46914674 .4079895 .38212586 .34599305 .3130951 .31399537 .27708436L.07299805 .038986207C.06298828 .02999878 .06298828 .027999878 .06298828 0H.47499085L.5049896 .18203736Z"/>
<path id="font_1_83" d="M.6239929 .4967041C.6239929 .59465029 .5249939 .6826172 .3880005 .6826172H.034988405V.6516113H.05899048C.13598633 .6516113 .13798523 .64060977 .13798523 .6046295V.07795715C.13798523 .041992189 .13598633 .0309906 .05899048 .0309906H.034988405V0C.069992069 .0029907227 .14399719 .0029907227 .18199158 .0029907227 .21998596 .0029907227 .29499818 .0029907227 .32998658 0V.0309906H.30599977C.22898865 .0309906 .22698975 .041992189 .22698975 .07795715V.3157959H.3959961C.5159912 .3157959 .6239929 .39675904 .6239929 .4967041M.5209961 .4967041C.5209961 .4497223 .5209961 .34179688 .3619995 .34179688H.22399903V.6116333C.22399903 .64460757 .22599793 .6516113 .272995 .6516113H.3619995C.5209961 .6516113 .5209961 .54566958 .5209961 .4967041Z"/>
<path id="font_1_64" d="M.27598573 .18710327V.24511719H.010986328V.18710327H.27598573Z"/>
<path id="font_1_112" d="M.5079956 .3996582V.43066407C.4850006 .4286499 .45599366 .42765809 .43299867 .42765809L.34599305 .43066407V.3996582C.3829956 .39865113 .3939972 .37568666 .3939972 .35671998 .3939972 .34773255 .3919983 .34373475 .3880005 .3327484L.28599549 .078125 .17399597 .35671998C.16799927 .3697052 .16799927 .37368775 .16799927 .37368775 .16799927 .3996582 .20698548 .3996582 .22499085 .3996582V.43066407L.115997318 .42765809C.08898926 .42765809 .04899597 .4286499 .018997193 .43066407V.3996582C.08198547 .3996582 .085998538 .3936615 .09899902 .36271668L.24299622 .008224487C.24899292-.0057525637 .25099183-.0107421879 .2639923-.0107421879 .2769928-.0107421879 .2809906-.0017700195 .2849884 .008224487L.41600038 .3327484C.4249878 .3557129 .44198609 .39865113 .5079956 .3996582Z"/>
<path id="font_1_28" d="M.48298646 .08912659V.14511109H.45799256V.08912659C.45799256 .03112793 .43299867 .025131226 .42199708 .025131226 .3889923 .025131226 .3849945 .070129398 .3849945 .07511902V.27508546C.3849945 .31707765 .3849945 .3560791 .34899903 .39312745 .30999757 .43223573 .2599945 .4482422 .21199036 .4482422 .12998963 .4482422 .06098938 .40115357 .06098938 .335083 .06098938 .30508424 .08099365 .28808595 .10699463 .28808595 .1349945 .28808595 .15299988 .30807496 .15299988 .33407594 .15299988 .3460846 .147995 .37908937 .101989749 .38008119 .1289978 .41519166 .17799378 .426239 .20999146 .426239 .25898744 .426239 .31599427 .38710023 .31599427 .29808045V.26107789C.2649994 .25808717 .19499207 .25508119 .13198853 .22509766 .056991579 .19110108 .03199768 .13911438 .03199768 .09512329 .03199768 .014251709 .1289978-.0107421879 .19198609-.0107421879 .2579956-.0107421879 .3039856 .029251099 .32299806 .07624817 .32699586 .036132814 .35398866-.005859375 .40098573-.005859375 .42199708-.005859375 .48298646 .008132935 .48298646 .08912659M.31599427 .14013672C.31599427 .04525757 .24398804 .011245728 .19898987 .011245728 .1499939 .011245728 .10899353 .04624939 .10899353 .09625244 .10899353 .15124512 .15098572 .23425293 .31599427 .24024964V.14013672Z"/>
<path id="font_1_72" d="M.25498963 0V.0309906C.18798828 .0309906 .1769867 .0309906 .1769867 .07601929V.69433596L.032989503 .6826172V.6516113C.102996829 .6516113 .11099243 .64460757 .11099243 .5956421V.07595825C.11099243 .0309906 .099990848 .0309906 .032989503 .0309906V0L.14399719 .0029907227 .25498963 0Z"/>
<path id="font_1_109" d="M.5349884 0V.0309906C.46499635 .0309906 .45700074 .037994386 .45700074 .08705139V.4423828L.30999757 .43066407V.3996582C.37998963 .3996582 .3880005 .39266969 .3880005 .34373475V.16601563C.3880005 .07910156 .33999635 .011245728 .2669983 .011245728 .18299866 .011245728 .1789856 .058135988 .1789856 .11009216V.4423828L.03199768 .43066407V.3996582C.10998535 .3996582 .10998535 .39666749 .10998535 .3078003V.15802002C.10998535 .080093387 .10998535-.0107421879 .2619934-.0107421879 .31799317-.0107421879 .3619995 .017242432 .3909912 .07910156V-.0107421879L.5349884 0Z"/>
<path id="font_1_50" d="M.4149933 .11933899C.4149933 .12934876 .40699769 .13134766 .4019928 .13134766 .3929901 .13134766 .3909912 .12535095 .3889923 .11734009 .35398866 .014251709 .2639923 .014251709 .2539978 .014251709 .20399475 .014251709 .1639862 .044281007 .14099121 .08131409 .11099243 .12934876 .11099243 .19540406 .11099243 .23144531H.3899994C.4119873 .23144531 .4149933 .23144531 .4149933 .2524414 .4149933 .35131837 .36099244 .4482422 .23599243 .4482422 .11999512 .4482422 .027999878 .34532167 .027999878 .22042847 .027999878 .08631897 .1329956-.0107421879 .24798584-.0107421879 .36999513-.0107421879 .4149933 .10032654 .4149933 .11933899M.34899903 .2524414H.11199951C.117996219 .40126039 .20199585 .426239 .23599243 .426239 .33898927 .426239 .34899903 .2913971 .34899903 .2524414Z"/>
</defs>
<path transform="matrix(1,0,0,-1.00003,3.7080003,43.994417)" stroke-width=".19925" stroke-linecap="butt" stroke-miterlimit="10" stroke-linejoin="miter" fill="none" stroke="#7f807f" d="M0 0V3.9851M77.70947 0V3.9851M139.87705 0V3.9851"/>
<path transform="matrix(1,0,0,-1.00003,3.7080003,43.994417)" stroke-width=".19925" stroke-linecap="butt" stroke-miterlimit="10" stroke-linejoin="miter" fill="none" stroke="#7f807f" d=""/>
<path transform="matrix(1,0,0,-1.00003,3.7080003,43.994417)" stroke-width=".3985" stroke-linecap="butt" stroke-miterlimit="10" stroke-linejoin="miter" fill="none" stroke="#000000" d="M0 0H194.27368"/>
<use data-text="0" xlink:href="#font_1_121" transform="matrix(9.9626,0,0,-9.962899,1.2170029,54.14972)"/>
<use data-text="d" xlink:href="#font_1_47" transform="matrix(9.9626,0,0,-9.962899,77.124,54.538736)"/>
<use data-text="f" xlink:href="#font_1_55" transform="matrix(9.9626,0,0,-9.962899,82.66321,54.538736)"/>
<use data-text="&#x03c7;" xlink:href="#font_2_1" transform="matrix(9.9626,0,0,-9.962899,138.23401,55.624765)"/>
<use data-text="2" xlink:href="#font_3_1" transform="matrix(6.9738,0,0,-6.9740097,144.468,52.00966)"/>
<path transform="matrix(1,0,0,-1.00003,3.7080003,43.994417)" stroke-width=".79701" stroke-linecap="butt" stroke-miterlimit="10" stroke-linejoin="miter" fill="none" stroke="#0000ff" d="M0 0 .97623 .00008 1.95248 .00146 2.92876 .00702 3.90501 .02083 4.88127 .04779 5.85751 .09308 6.83379 .16194 7.81004 .25946 8.7863 .39027 9.76256 .55872 10.7388 .76819 11.71506 1.02174 12.69131 1.32152 13.66757 1.66934 14.64383 2.06573 15.62009 2.51143 16.59634 3.00577 17.5726 3.54822 18.54886 4.13588 19.52512 4.76956 20.50136 5.44298 21.47762 6.15918 22.45387 6.9095 23.43013 7.69133 24.40639 8.50356 25.38264 9.34471 26.3589 10.20541 27.33516 11.08212 28.31142 11.97467 29.28767 12.88278 30.26393 13.78822 31.24017 14.70143 32.21643 15.62022 33.19269 16.52422 34.16895 17.4246 35.1452 18.32494 36.12148 19.20096 37.09772 20.06161 38.07397 20.9033 39.05023 21.72272 40.02649 22.51773 41.00275 23.2869 41.97899 24.02734 42.95525 24.73813 43.9315 25.41687 44.90776 26.06285 45.88403 26.67513 46.86029 27.25189 47.83653 27.79329 48.81279 28.29779 49.78905 28.76549 50.7653 29.19614 51.74156 29.58932 52.7178 29.94542 53.69406 30.26363 54.67032 30.54497 55.64659 30.79025 56.62285 30.99852 57.5991 31.17151 58.57535 31.30954 59.5516 31.41273 60.52788 31.48312 61.50412 31.52025 62.48038 31.5257 63.45663 31.5007 64.43288 31.44585 65.40915 31.36263 66.3854 31.25084 67.36166 31.11311 68.33792 30.94983 69.31416 30.76202 70.29044 30.55179 71.26668 30.3194 72.24294 30.06612 73.2192 29.79343 74.19545 29.5017 75.1717 29.19252 76.14796 28.86761 77.12422 28.52722 78.10048 28.17757 79.07674 27.80742 80.05298 27.42575 81.02922 27.03868 82.00548 26.63864 82.98174 26.2276 83.958 25.81325 84.93425 25.38695 85.9105 24.95677 86.88675 24.52159 87.863 24.0816 88.83926 23.63545 89.81552 23.19089 90.79178 22.73932 91.76802 22.28868 92.74428 21.83699 93.72052 21.38483 94.69678 20.93095 95.67303 20.4823 96.64929 20.03096 97.62555 19.58327 98.6018 19.13974 99.57806 18.69553 100.55432 18.2546 101.53055 17.82076 102.5068 17.38725 103.48306 16.9598 104.45932 16.53874 105.43558 16.11902 106.41183 15.70496 107.38809 15.29962 108.36433 14.89648 109.34059 14.50069 110.31685 14.11084 111.2931 13.7274 112.26935 13.34897 113.2456 12.97937 114.22186 12.61513 115.1981 12.25737 116.17436 11.90671 117.15062 11.56128 118.12688 11.22511 119.10313 10.89368 120.07939 10.57005 121.05565 10.25449 122.03188 9.9438 123.00813 9.64003 123.98439 9.34506 124.96065 9.0549 125.9369 8.77274 126.91316 8.498 127.88942 8.22823 128.86566 7.96532 129.84192 7.71054 130.81818 7.46135 131.79442 7.2181 132.77068 6.98247 133.74694 6.75177 134.72319 6.52737 135.69944 6.3103 136.67569 6.09792 137.65195 5.89217 138.6282 5.69272 139.60446 5.49785 140.58072 5.30861 141.55698 5.12599 142.5332 4.9481 143.50946 4.77516 144.48572 4.60822 145.46198 4.44545 146.43824 4.28806 147.41449 4.13556 148.39075 3.98772 149.36699 3.84415 150.34325 3.70584 151.3195 3.57117 152.29575 3.44121 153.272 3.31537 154.24826 3.19365 155.22452 3.0756 156.20076 2.96205 157.17702 2.85196 158.15328 2.74498 159.12953 2.64264 160.10579 2.54303 161.08205 2.44678 162.0583 2.3543 163.03455 2.26451 164.01079 2.17828 164.98705 2.09485 165.9633 2.0141 166.93956 1.93658 167.91582 1.86145 168.89208 1.78896 169.86833 1.71944 170.84458 1.65222 171.82083 1.58727 172.79708 1.52496 173.77333 1.46465 174.74959 1.40666 175.72585 1.3508 176.7021 1.29701 177.67835 1.24506 178.6546 1.19531 179.63086 1.14722 180.60712 1.10098 181.58338 1.05661 182.55962 1.0137 183.53588 .97243 184.51212 .93292 185.48838 .89473 186.46463 .85811 187.44089 .82297 188.41715 .78902 189.3934 .7564 190.36966 .72517 191.3459 .69505 192.32216 .66615 193.2984 .63847 194.27466 .61177"/>
<path transform="matrix(1,0,0,-1.00003,3.7080003,43.994417)" d="M139.87705 5.44427 140.15038 5.39177 140.42372 5.33968 140.69705 5.28699 140.9704 5.23524 141.24373 5.1844 141.51708 5.13348 141.7904 5.0825 142.06375 5.03302 142.33708 4.98335 142.61045 4.9336 142.88378 4.88527 143.15712 4.83702 143.43045 4.78947 143.7038 4.74142 143.97713 4.69429 144.25048 4.64796 144.52382 4.60155 144.79715 4.55513 145.0705 4.51 145.34383 4.46483 145.61717 4.42046 145.8905 4.3756 146.16385 4.332 146.43718 4.28839 146.71053 4.24553 146.98386 4.20221 147.2572 4.15976 147.53055 4.118 147.8039 4.07617 148.07723 4.03436 148.35057 3.99374 148.62392 3.95306 148.89725 3.91238 149.1706 3.87239 149.44393 3.83322 149.71727 3.79439 149.9906 3.7551 150.26395 3.71654 150.53728 3.6787 150.81063 3.64085 151.08396 3.60336 151.3573 3.56615 151.63063 3.52937 151.90398 3.4932 152.1773 3.45667 152.45067 3.4208 152.724 3.38562 152.99735 3.35081 153.27069 3.31526 153.54402 3.28107 153.81737 3.24683 154.0907 3.21326 154.36405 3.17934 154.63738 3.14636 154.91072 3.11342 155.18405 3.08104 155.4574 3.04836 155.73073 3.01628 156.00408 2.98482 156.2774 2.95305 156.55075 2.92189 156.82408 2.89131 157.09743 2.86076 157.37079 2.83015 157.64412 2.80046 157.91747 2.77069 158.1908 2.74152 158.46414 2.71207 158.73748 2.68323 159.01082 2.65486 159.28415 2.62657 159.5575 2.59824 159.83083 2.5707 160.10417 2.54317 160.3775 2.51617 160.65085 2.48892 160.92418 2.46214 161.19753 2.43594 161.47087 2.40971 161.7442 2.38351 162.01755 2.35803 162.2909 2.3328 162.56424 2.30736 162.83757 2.28242 163.11092 2.25789 163.38425 2.23338 163.6576 2.20892 163.93093 2.18513 164.20427 2.16138 164.4776 2.13808 164.75095 2.11456 165.02428 2.09149 165.29763 2.06886 165.57096 2.04643 165.8443 2.02364 166.11765 2.0017 166.39098 1.97975 166.66432 1.9582 166.93766 1.93651 167.21102 1.91522 167.48435 1.89433 167.75769 1.87349 168.03102 1.85265 168.30437 1.83237 168.5777 1.8121 168.85105 1.79225 169.12438 1.77223 169.39772 1.7526 169.67105 1.73334 169.9444 1.71393 170.21775 1.69504 170.49108 1.67621 170.76442 1.65773 171.03775 1.63892 171.3111 1.6208 171.58443 1.60289 171.85778 1.58496 172.13112 1.5671 172.40447 1.54971 172.6778 1.53235 172.95114 1.51517 173.22447 1.4982 173.49782 1.48138 173.77115 1.46487 174.0445 1.44838 174.31784 1.43192 174.59117 1.41592 174.86452 1.4001 175.13785 1.3843 175.4112 1.3685 175.68453 1.35304 175.95787 1.33786 176.2312 1.3226 176.50455 1.30757 176.7779 1.29288 177.05124 1.2782 177.32457 1.26353 177.59792 1.24931 177.87125 1.2352 178.14459 1.22112 178.41793 1.20709 178.69127 1.19342 178.96462 1.17984 179.23795 1.16646 179.51129 1.153 179.78462 1.13979 180.05797 1.12685 180.3313 1.11394 180.60465 1.10103 180.87798 1.0885 181.15132 1.07599 181.42465 1.06372 181.69802 1.05138 181.97135 1.03926 182.24469 1.02737 182.51802 1.01552 182.79137 1.0037 183.06472 .99219 183.33805 .98073 183.61139 .96927 183.88472 .95815 184.15807 .94714 184.4314 .93616 184.70475 .92519 184.97808 .91444 185.25142 .90388 185.52475 .89339 185.7981 .88289 186.07143 .8727 186.34477 .8626 186.61812 .85254 186.89147 .8425 187.16481 .83273 187.43814 .823 187.71149 .81343 187.98482 .80383 188.25817 .79442 188.5315 .78517 188.80484 .77596 189.07817 .76678 189.35152 .75784 189.62485 .74892 189.8982 .74004 190.17153 .7314 190.44487 .72278 190.7182 .71432 190.99155 .70583 191.26488 .6975 191.53824 .68932 191.81159 .68117 192.08492 .67303 192.35826 .66513 192.63159 .65726 192.90494 .64952 193.17827 .64174 193.45162 .63419 193.72495 .62666 193.99829 .61928 194.27162 .61185V0H139.87705Z" fill="#b3b3ff"/>
<path transform="matrix(1,0,0,-1.00003,3.7080003,43.994417)" stroke-width=".79701" stroke-linecap="butt" stroke-miterlimit="10" stroke-linejoin="miter" fill="none" stroke="#000000" d="M170.96083 32.27835V3.9352"/>
<path transform="matrix(0,1.00003,1,0,174.66883,40.059099)" stroke-width=".6376" stroke-linecap="round" stroke-linejoin="round" fill="none" stroke="#000000" d="M-1.55415 2.0722C-1.42464 1.29512 0 .1295 .38852 0 0-.1295-1.42464-1.29512-1.55415-2.0722"/>
<use data-text="P" xlink:href="#font_1_83" transform="matrix(9.9626,0,0,-9.962899,158.41,7.8863375)"/>
<use data-text="-" xlink:href="#font_1_64" transform="matrix(9.9626,0,0,-9.962899,165.19452,7.8863375)"/>
<use data-text="v" xlink:href="#font_1_112" transform="matrix(9.9626,0,0,-9.962899,168.51207,7.8863375)"/>
<use data-text="a" xlink:href="#font_1_28" transform="matrix(9.9626,0,0,-9.962899,173.22438,7.8863375)"/>
<use data-text="l" xlink:href="#font_1_72" transform="matrix(9.9626,0,0,-9.962899,178.20569,7.8863375)"/>
<use data-text="u" xlink:href="#font_1_109" transform="matrix(9.9626,0,0,-9.962899,180.97528,7.8863375)"/>
<use data-text="e" xlink:href="#font_1_50" transform="matrix(9.9626,0,0,-9.962899,186.5145,7.8863375)"/>
</svg>
