<svg xmlns="http://www.w3.org/2000/svg" xmlns:xlink="http://www.w3.org/1999/xlink" xmlns:inkscape="http://www.inkscape.org/namespaces/inkscape" version="1.1" width="198" height="173" viewBox="0 0 198 173">
<defs>
<clipPath id="clip_1">
<path transform="matrix(1.00003,0,0,-1.00008,2.0964967,163.20879)" d="M0 0H194.26912V161.39968H0Z"/>
</clipPath>
<path id="font_2_1" d="M.37298585 .37835694C.35499574 .41537477 .32598878 .4423828 .2809906 .4423828 .1639862 .4423828 .039993287 .29533387 .039993287 .14929199 .039993287 .055267335 .09498596-.0107421879 .17298889-.0107421879 .19299317-.0107421879 .24299622-.0067443849 .30299378 .06427002 .31098939 .022247315 .34599305-.0107421879 .3939972-.0107421879 .42900086-.0107421879 .45199586 .012252808 .46798707 .044265748 .4850006 .08027649 .49798585 .14129639 .49798585 .14329529 .49798585 .1532898 .4889984 .1532898 .48599244 .1532898 .47599793 .1532898 .47499085 .14929199 .47200013 .13528443 .45498658 .07026672 .43699647 .011245728 .3959961 .011245728 .36898805 .011245728 .3659973 .037261964 .3659973 .057266237 .3659973 .07926941 .36799623 .08728027 .3789978 .13128662 .3899994 .17329407 .3919983 .18330384 .40098573 .22131348L.43699647 .36135865C.44400025 .38935853 .44400025 .39135743 .44400025 .39537049 .44400025 .41236878 .43199159 .42237855 .4149933 .42237855 .3909912 .42237855 .37599183 .4003601 .37298585 .37835694M.30799867 .119277957C.30299378 .10127258 .30299378 .09927368 .28799439 .08227539 .24398804 .027252198 .20298767 .011245728 .1749878 .011245728 .125 .011245728 .11099243 .06626892 .11099243 .105285648 .11099243 .1552887 .14299011 .27833558 .1659851 .32434083 .19699097 .38336183 .24198914 .42037965 .28199769 .42037965 .34700013 .42037965 .36099244 .3383484 .36099244 .33235169 .36099244 .32633973 .35899354 .32034303 .35798646 .31533814L.30799867 .119277957Z"/>
<clipPath id="clip_3">
<path transform="matrix(1.00003,0,0,-1.00008,2.0964967,163.20879)" d="M0 0H194.26912V161.39968H0Z"/>
</clipPath>
</defs>
<path transform="matrix(1.00003,0,0,-1.00008,2.0964967,163.20879)" stroke-width=".19925" stroke-linecap="butt" stroke-miterlimit="10" stroke-linejoin="miter" fill="none" stroke="#7f807f" d=""/>
<path transform="matrix(1.00003,0,0,-1.00008,2.0964967,163.20879)" stroke-width=".19925" stroke-linecap="butt" stroke-miterlimit="10" stroke-linejoin="miter" fill="none" stroke="#7f807f" d=""/>
<path transform="matrix(1.00003,0,0,-1.00008,2.0964967,163.20879)" stroke-width=".19925" stroke-linecap="butt" stroke-miterlimit="10" stroke-linejoin="miter" fill="none" stroke="#7f807f" d="M83.2582 0V4.25209M83.2582 161.39968V157.14757"/>
<path transform="matrix(1.00003,0,0,-1.00008,2.0964967,163.20879)" stroke-width=".3985" stroke-linecap="butt" stroke-miterlimit="10" stroke-linejoin="miter" fill="none" stroke="#000000" d="M0 0V161.39968H194.26912V0H0Z"/>
<g clip-path="url(#clip_1)">
<path transform="matrix(1.00003,0,0,-1.00008,2.0964967,163.20879)" d="M0 13.49574 .97621 13.50255 1.95244 13.51027 2.92867 13.51907 3.90489 13.52905 4.88112 13.5404 5.85736 13.55327 6.83359 13.56784 7.80981 13.58429 8.78604 13.60286 9.76227 13.62381 10.73851 13.6474 11.71472 13.67395 12.69095 13.70375 13.66718 13.73717 14.6434 13.77457 15.61963 13.81647 16.59587 13.86322 17.5721 13.91536 18.54832 13.9734 19.52455 14.0381 20.50078 14.10992 21.47702 14.18959 22.45323 14.27791 23.42946 14.37553 24.40569 14.48347 25.38191 14.6026 26.35814 14.73387 27.33438 14.87828 28.31061 15.03708 29.28683 15.21127 30.26306 15.40224 31.23929 15.61124 32.21553 15.83965 33.19174 16.08896 34.16797 16.36066 35.1442 16.65631 36.12042 16.97772 37.09666 17.32648 38.07289 17.70454 39.04912 18.11368 40.02534 18.55585 41.00157 19.03296 41.9778 19.54721 42.95404 20.10066 43.93025 20.69518 44.90648 21.33333 45.8827 22.01686 46.85893 22.74828 47.83517 23.52966 48.8114 24.36311 49.78763 25.25085 50.76385 26.19525 51.74008 27.19711 52.71631 28.25961 53.69255 29.38954 54.66876 30.57237 55.64499 31.83679 56.62122 33.15616 57.59746 34.55609 58.57368 36.02075 59.54991 37.55348 60.52615 39.15398 61.50238 40.8364 62.4786 42.59937 63.45483 44.4284 64.43108 46.33803 65.40729 48.31639 66.38351 50.3605 67.35976 52.48618 68.33598 54.69176 69.31221 56.95125 70.28844 59.27785 71.26468 61.68498 72.2409 64.14708 73.21713 66.66379 74.19336 69.24554 75.1696 71.86911 76.14581 74.54526 77.12206 77.2767 78.09828 80.03474 79.07451 82.81876 80.05074 85.64256 81.02698 88.48016 82.0032 91.34744 82.97943 94.21169 83.25839 95.03023 83.25809 13.45064H71.6925 60.12906 48.5656 37.00215 25.43869 13.87524 2.31178 0Z" fill="#0000ff" fill-opacity=".25"/>
</g>
<use data-text="a" xlink:href="#font_2_1" transform="matrix(9.962899,0,0,-9.963397,82.723918,171.0184)"/>
<g clip-path="url(#clip_3)">
<path transform="matrix(1.00003,0,0,-1.00008,2.0964967,163.20879)" stroke-width=".79701" stroke-linecap="butt" stroke-miterlimit="10" stroke-linejoin="miter" fill="none" stroke="#000000" d="M0 13.49574 .97621 13.50255 1.95244 13.51027 2.92867 13.51907 3.90489 13.52905 4.88112 13.5404 5.85736 13.55327 6.83359 13.56784 7.80981 13.58429 8.78604 13.60286 9.76227 13.62381 10.73851 13.6474 11.71472 13.67395 12.69095 13.70375 13.66718 13.73717 14.6434 13.77457 15.61963 13.81647 16.59587 13.86322 17.5721 13.91536 18.54832 13.9734 19.52455 14.0381 20.50078 14.10992 21.47702 14.18959 22.45323 14.27791 23.42946 14.37553 24.40569 14.48347 25.38191 14.6026 26.35814 14.73387 27.33438 14.87828 28.31061 15.03708 29.28683 15.21127 30.26306 15.40224 31.23929 15.61124 32.21553 15.83965 33.19174 16.08896 34.16797 16.36066 35.1442 16.65631 36.12042 16.97772 37.09666 17.32648 38.07289 17.70454 39.04912 18.11368 40.02534 18.55585 41.00157 19.03296 41.9778 19.54721 42.95404 20.10066 43.93025 20.69518 44.90648 21.33333 45.8827 22.01686 46.85893 22.74828 47.83517 23.52966 48.8114 24.36311 49.78763 25.25085 50.76385 26.19525 51.74008 27.19711 52.71631 28.25961 53.69255 29.38954 54.66876 30.57237 55.64499 31.83679 56.62122 33.15616 57.59746 34.55609 58.57368 36.02075 59.54991 37.55348 60.52615 39.15398 61.50238 40.8364 62.4786 42.59937 63.45483 44.4284 64.43108 46.33803 65.40729 48.31639 66.38351 50.3605 67.35976 52.48618 68.33598 54.69176 69.31221 56.95125 70.28844 59.27785 71.26468 61.68498 72.2409 64.14708 73.21713 66.66379 74.19336 69.24554 75.1696 71.86911 76.14581 74.54526 77.12206 77.2767 78.09828 80.03474 79.07451 82.81876 80.05074 85.64256 81.02698 88.48016 82.0032 91.34744 82.97943 94.21169 83.95566 97.07626 84.9319 99.94084 85.90813 102.7926 86.88435 105.63191 87.86058 108.43077 88.8368 111.20096 89.81303 113.93239 90.78928 116.59505 91.7655 119.21727 92.74173 121.76025 93.71796 124.22 94.6942 126.60287 95.67043 128.9025 96.64667 131.09459 97.62288 133.17879 98.5991 135.15718 99.57533 137.01285 100.55157 138.73705 101.5278 140.33722 102.50403 141.78974 103.48026 143.09325 104.4565 144.2643 105.43272 145.27153 106.40895 146.1203 107.3852 146.81977 108.36142 147.34529 109.33763 147.70833 110.31387 147.90857 111.2901 147.94902 112.26633 147.81452 113.24255 147.51854 114.2188 147.06145 115.19502 146.42942 116.17125 145.64939 117.14748 144.70825 118.1237 143.61878 119.09993 142.36682 120.07616 140.96926 121.05238 139.43349 122.02861 137.7676 123.00484 135.96416 123.98106 134.04106 124.9573 132.00878 125.93353 129.85747 126.90976 127.5983 127.88599 125.25688 128.86222 122.82378 129.83844 120.30775 130.81467 117.72462 131.7909 115.07512 132.76712 112.37065 133.74335 109.62608 134.71958 106.8306 135.69582 104.01793 136.67205 101.16583 137.64827 98.31337 138.6245 95.4488 139.60073 92.57007 140.57697 89.70549 141.55318 86.85304 142.5294 84.03026 143.50563 81.21826 144.48186 78.44537 145.45809 75.70181 146.43433 73.01218 147.41056 70.36165 148.38678 67.76472 149.363 65.2106 150.33924 62.72188 151.31548 60.29988 152.29169 57.94635 153.26792 55.64706 154.24414 53.42632 155.22037 51.26154 156.1966 49.17665 157.17284 47.17198 158.14907 45.2337 159.12529 43.37938 160.10152 41.58945 161.07775 39.86794 162.05399 38.2263 163.0302 36.66762 164.00643 35.1733 164.98265 33.74675 165.95888 32.38828 166.93512 31.1107 167.91135 29.88708 168.88758 28.73087 169.8638 27.63971 170.84003 26.61719 171.81626 25.64825 172.7925 24.73633 173.7687 23.87993 174.74494 23.07661 175.72116 22.32399 176.69739 21.62015 177.67363 20.96292 178.64986 20.34998 179.62609 19.77916 180.60231 19.24846 181.57854 18.7557 182.55477 18.29884 183.531 17.87581 184.50722 17.48466 185.48345 17.1236 186.45967 16.79071 187.4359 16.48416 188.41214 16.2024 189.38837 15.94374 190.3646 15.70657 191.34082 15.48944 192.31705 15.29091 193.29329 15.10968 194.26952 14.94447"/>
<path transform="matrix(1.00003,0,0,-1.00008,2.0964967,163.20879)" stroke-width=".3985" stroke-linecap="butt" stroke-miterlimit="10" stroke-linejoin="miter" fill="none" stroke="#000000" d="M-55.50546 13.45064H-43.94202-32.37856-20.81511-9.25165 2.31178 13.87524 25.43869 37.00215 48.5656 60.12906 71.6925 83.25597 94.81941 106.38287 117.94632 129.50978 141.07323 152.63669 164.20014 175.7636 187.32704 198.8905 210.45395 222.01741"/>
<path transform="matrix(1.00003,0,0,-1.00008,2.0964967,163.20879)" stroke-width=".79701" stroke-linecap="butt" stroke-dasharray="2.98883,2.98883" stroke-miterlimit="10" stroke-linejoin="miter" fill="none" stroke="#000000" d="M83.2582 13.45064V114.57724"/>
</g>
</svg>
